<svg xmlns="http://www.w3.org/2000/svg" width="136.364" height="30" viewBox="0 0 136.364 30"><path d="M129.972,30H0L6.392,0H136.364Z" fill="#d2d2d2"/><g transform="translate(7.472 2.472)"><path d="M36.925,28.444c-.739,3.494-2.869,5.227-6.335,5.227-2.869,0-4.29-1.193-4.29-3.551a7.259,7.259,0,0,1,.2-1.676l3.1-14.517c.739-3.494,2.841-5.227,6.335-5.227,2.869,0,4.318,1.193,4.318,3.551a7.438,7.438,0,0,1-.2,1.676l-.767,3.438H35.249l.739-3.438a3.164,3.164,0,0,0,.057-.483c0-.568-.312-.881-.966-.881H35.05c-.8,0-1.278.455-1.477,1.364L30.5,28.444a3.164,3.164,0,0,0-.057.483c0,.6.313.881.966.881a1.436,1.436,0,0,0,1.477-1.364l.739-3.437h4.034Z" transform="translate(-26.3 -8.7)" fill="#010101"/><path d="M77.425,28.444c-.739,3.494-2.869,5.227-6.335,5.227-2.869,0-4.29-1.193-4.29-3.551a7.259,7.259,0,0,1,.2-1.676l3.1-14.517c.739-3.494,2.841-5.227,6.335-5.227,2.869,0,4.318,1.193,4.318,3.551a7.438,7.438,0,0,1-.2,1.676Zm-.937-14.517a3.164,3.164,0,0,0,.057-.483c0-.568-.312-.881-.966-.881H75.55c-.8,0-1.278.455-1.477,1.364L71,28.444a3.163,3.163,0,0,0-.057.483c0,.6.313.881.966.881a1.436,1.436,0,0,0,1.477-1.364Z" transform="translate(-55.294 -8.7)" fill="#010101"/><path d="M110.67,10h5.568c2.642,0,3.949,1.165,3.949,3.466a8.157,8.157,0,0,1-.2,1.761l-2.926,13.75c-.739,3.466-2.812,5.227-6.193,5.227H105.5Zm3.21,3.864-3.494,16.506h1.193c.8,0,1.278-.455,1.477-1.364l2.926-13.75a3.163,3.163,0,0,0,.057-.483c0-.6-.312-.909-.966-.909Z" transform="translate(-83 -9.631)" fill="#010101"/><path d="M152.442,10h9.489l-.824,3.864h-5.455L154.317,20.2H159l-.824,3.864h-4.687l-1.335,6.307h5.455l-.824,3.864H147.3Z" transform="translate(-112.925 -9.631)" fill="#010101"/><path d="M189.471,10h5.284c2.642,0,3.949,1.165,3.949,3.466a8.157,8.157,0,0,1-.2,1.761l-.739,3.58a5.283,5.283,0,0,1-3.551,4.261l1.506,11.165h-4.4l-.54-10.426h-.227l-2.216,10.426H184.3Zm3.21,3.864-1.335,6.307h.483a2.732,2.732,0,0,0,.852-.085,1.641,1.641,0,0,0,1.051-1.307l.739-3.58a3.167,3.167,0,0,0,.057-.483c0-.6-.312-.909-.966-.909h-.881Z" transform="translate(-139.414 -9.631)" fill="#010101"/><path d="M247.742,10h4.034l-2.159,10.17H252L254.163,10H258.2l-5.142,24.233H249.02l2.159-10.17h-2.386l-2.159,10.17H242.6Z" transform="translate(-181.151 -9.631)" fill="#010101"/><path d="M297.925,28.444c-.739,3.494-2.869,5.227-6.335,5.227-2.869,0-4.29-1.193-4.29-3.551a7.26,7.26,0,0,1,.2-1.676l3.1-14.517c.739-3.494,2.841-5.227,6.335-5.227,2.869,0,4.318,1.193,4.318,3.551a7.435,7.435,0,0,1-.2,1.676Zm-.937-14.517a3.167,3.167,0,0,0,.057-.483c0-.568-.312-.881-.966-.881h-.028c-.8,0-1.278.455-1.477,1.364l-3.1,14.517a3.166,3.166,0,0,0-.057.483c0,.6.313.881.966.881a1.435,1.435,0,0,0,1.477-1.364Z" transform="translate(-213.152 -8.7)" fill="#010101"/><path d="M339.225,29.375c-.739,3.494-2.869,5.227-6.335,5.227-2.869,0-4.29-1.193-4.29-3.551a7.256,7.256,0,0,1,.2-1.676L332.918,10h4.034l-4.119,19.375a3.171,3.171,0,0,0-.057.483c0,.6.313.881.966.881a1.435,1.435,0,0,0,1.477-1.364L339.31,10h4.034Z" transform="translate(-242.719 -9.631)" fill="#010101"/><path d="M373.2,13.927c.739-3.494,2.841-5.227,6.335-5.227,2.869,0,4.318,1.193,4.318,3.551a7.439,7.439,0,0,1-.2,1.676l-.739,3.438h-4.034l.739-3.438a3.17,3.17,0,0,0,.057-.483c0-.568-.312-.881-.966-.881h-.028c-.8,0-1.278.455-1.477,1.364l-.454,2.159a1.38,1.38,0,0,0-.028.341c0,.938.8,2.045,2.358,3.381a5.6,5.6,0,0,1,2.273,4.375,6.524,6.524,0,0,1-.142,1.278l-.653,3.011c-.739,3.494-2.841,5.227-6.335,5.227-2.869,0-4.318-1.193-4.318-3.58a7.439,7.439,0,0,1,.2-1.676l.739-3.437h4.034l-.739,3.438a3.163,3.163,0,0,0-.057.483c0,.6.313.881.966.881.8,0,1.278-.455,1.477-1.364l.568-2.7a1.618,1.618,0,0,0,.028-.369c0-.994-.767-2.159-2.33-3.466a5.582,5.582,0,0,1-2.244-4.4,7.361,7.361,0,0,1,.142-1.335Z" transform="translate(-272.286 -8.7)" fill="#010101"/><path d="M413.842,10h9.489l-.824,3.864h-5.455l-1.335,6.307h4.716l-.824,3.864h-4.687l-1.335,6.307h5.426l-.824,3.864H408.7Z" transform="translate(-300.064 -9.631)" fill="#010101"/></g></svg>