<svg xmlns="http://www.w3.org/2000/svg" width="272.727" height="60" viewBox="0 0 272.727 60"><g transform="translate(0 0)"><path d="M259.943,60H0L12.784,0H272.727Z" fill="#e0ff00"/><g transform="translate(14.943 4.943)"><path d="M47.55,48.189c-1.477,6.989-5.739,10.455-12.67,10.455-5.739,0-8.58-2.386-8.58-7.1a14.517,14.517,0,0,1,.4-3.352l6.193-29.034C34.368,12.166,38.573,8.7,45.561,8.7c5.739,0,8.636,2.386,8.636,7.1a14.876,14.876,0,0,1-.4,3.352L52.266,26.03H44.2l1.477-6.875a6.327,6.327,0,0,0,.114-.966c0-1.136-.625-1.761-1.932-1.761H43.8c-1.591,0-2.557.909-2.955,2.727L34.709,48.189a6.327,6.327,0,0,0-.114.966c0,1.193.625,1.761,1.932,1.761,1.591,0,2.614-.909,2.955-2.727l1.477-6.875h8.068Z" transform="translate(-26.3 -8.7)" fill="#010101"/><path d="M88.05,48.189c-1.477,6.989-5.739,10.455-12.67,10.455-5.739,0-8.58-2.386-8.58-7.1a14.517,14.517,0,0,1,.4-3.352l6.193-29.034C74.868,12.166,79.073,8.7,86.061,8.7c5.739,0,8.636,2.386,8.636,7.1a14.876,14.876,0,0,1-.4,3.352ZM86.175,19.155a6.328,6.328,0,0,0,.114-.966c0-1.136-.625-1.761-1.932-1.761H84.3c-1.591,0-2.557.909-2.955,2.727L75.209,48.189a6.326,6.326,0,0,0-.114.966c0,1.193.625,1.761,1.932,1.761,1.591,0,2.614-.909,2.955-2.727Z" transform="translate(-43.789 -8.7)" fill="#010101"/><path d="M115.841,10h11.136c5.284,0,7.9,2.33,7.9,6.932a16.313,16.313,0,0,1-.4,3.523l-5.852,27.5c-1.477,6.932-5.625,10.455-12.386,10.455H105.5Zm6.42,7.727-6.989,33.011h2.386c1.591,0,2.557-.909,2.955-2.727l5.852-27.5a6.326,6.326,0,0,0,.114-.966c0-1.193-.625-1.818-1.932-1.818Z" transform="translate(-60.5 -9.261)" fill="#010101"/><path d="M157.584,10h18.977l-1.648,7.727H164l-2.67,12.67h9.375l-1.648,7.727h-9.375l-2.67,12.614h10.909l-1.648,7.727H147.3Z" transform="translate(-78.55 -9.261)" fill="#010101"/><path d="M194.641,10h10.568c5.284,0,7.9,2.33,7.9,6.932a16.312,16.312,0,0,1-.4,3.523l-1.477,7.159c-.909,4.375-3.3,7.216-7.1,8.523l3.011,22.33h-8.807l-1.08-20.852H196.8l-4.432,20.852H184.3Zm6.42,7.727-2.67,12.614h.966a5.464,5.464,0,0,0,1.7-.17,3.282,3.282,0,0,0,2.1-2.614l1.477-7.159a6.328,6.328,0,0,0,.114-.966c0-1.193-.625-1.818-1.932-1.818h-1.761Z" transform="translate(-94.527 -9.261)" fill="#010101"/><path d="M252.884,10h8.068l-4.318,20.341h4.773L265.725,10h8.068L263.509,58.466h-8.068l4.318-20.341h-4.773l-4.318,20.341H242.6Z" transform="translate(-119.702 -9.261)" fill="#010101"/><path d="M308.55,48.189c-1.477,6.989-5.739,10.455-12.67,10.455-5.739,0-8.58-2.386-8.58-7.1a14.517,14.517,0,0,1,.4-3.352l6.193-29.034c1.477-6.989,5.682-10.455,12.67-10.455,5.739,0,8.636,2.386,8.636,7.1a14.872,14.872,0,0,1-.4,3.352Zm-1.875-29.034a6.33,6.33,0,0,0,.114-.966c0-1.136-.625-1.761-1.932-1.761H304.8c-1.591,0-2.557.909-2.955,2.727l-6.193,29.034a6.33,6.33,0,0,0-.114.966c0,1.193.625,1.761,1.932,1.761,1.591,0,2.614-.909,2.954-2.727Z" transform="translate(-139.005 -8.7)" fill="#010101"/><path d="M349.85,48.75c-1.477,6.989-5.739,10.455-12.67,10.455-5.739,0-8.58-2.386-8.58-7.1a14.514,14.514,0,0,1,.4-3.352L337.236,10H345.3l-8.239,38.75a6.33,6.33,0,0,0-.114.966c0,1.193.625,1.761,1.932,1.761,1.591,0,2.614-.909,2.954-2.727L350.02,10h8.068Z" transform="translate(-156.839 -9.261)" fill="#010101"/><path d="M376.491,19.155C377.968,12.166,382.173,8.7,389.161,8.7c5.739,0,8.636,2.386,8.636,7.1a14.875,14.875,0,0,1-.4,3.352l-1.477,6.875h-8.068l1.477-6.875a6.337,6.337,0,0,0,.114-.966c0-1.136-.625-1.761-1.932-1.761h-.057c-1.591,0-2.557.909-2.955,2.727l-.909,4.318a2.766,2.766,0,0,0-.057.682c0,1.875,1.591,4.091,4.716,6.761,3.011,2.5,4.545,5.455,4.545,8.75a13.052,13.052,0,0,1-.284,2.557l-1.307,6.023c-1.477,6.989-5.682,10.455-12.67,10.455-5.739,0-8.636-2.386-8.636-7.159a14.874,14.874,0,0,1,.4-3.352l1.477-6.875h8.068l-1.477,6.875a6.323,6.323,0,0,0-.114.966c0,1.193.625,1.761,1.932,1.761,1.591,0,2.557-.909,2.955-2.727l1.136-5.4a3.239,3.239,0,0,0,.057-.739c0-1.989-1.534-4.318-4.659-6.932a11.164,11.164,0,0,1-4.489-8.807,14.727,14.727,0,0,1,.284-2.67Z" transform="translate(-174.673 -8.7)" fill="#010101"/><path d="M418.984,10h18.977l-1.648,7.727H425.4l-2.671,12.614h9.432l-1.648,7.727h-9.375l-2.67,12.614h10.852l-1.648,7.727H408.7Z" transform="translate(-191.427 -9.261)" fill="#010101"/></g></g></svg>